<svg xmlns="http://www.w3.org/2000/svg" xml:space="preserve" viewBox="0 -960 960 960">
  <path d="M480-880A400 400 0 0 0 80-480 400 400 0 0 0 480-80a400 400 0 0 0 400-400 400 400 0 0 0-400-400zm0 80a320 320 0 0 1 320 320 320 320 0 0 1-320 320 320 320 0 0 1-320-320 320 320 0 0 1 320-320z" paint-order="fill markers stroke"/>
  <path fill="#f9f9f9" d="M254-706v226h546a320 320 0 0 0-546-226"/>
  <path fill="#ed4c5c" d="M254-480v226a319 319 0 0 0 546-226z"/>
  <path fill="#428bc1" d="M254-706a319 319 0 0 0 0 452l226-226Z"/>
</svg>
