<svg xmlns="http://www.w3.org/2000/svg" xml:space="preserve" viewBox="0 -960 960 960">
  <path d="M480-880A400 400 0 0 0 80-480 400 400 0 0 0 480-80a400 400 0 0 0 400-400 400 400 0 0 0-400-400zm0 80a320 320 0 0 1 320 320 320 320 0 0 1-320 320 320 320 0 0 1-320-320 320 320 0 0 1 320-320z" paint-order="fill markers stroke"/>
  <path fill="#ed4c5c" d="M651-751c-50-31-108-49-171-49v49z"/>
  <path fill="#fff" d="M480-702h230c-18-18-38-35-59-49H480Z"/>
  <path fill="#ed4c5c" d="M480-653h270c-12-18-25-34-39-49H480Z"/>
  <path fill="#fff" d="M480-604h295c-7-17-16-34-25-49H480Z"/>
  <path fill="#ed4c5c" d="M480-554h311c-4-17-9-34-16-50H480Z"/>
  <path fill="#fff" d="M480-505h319c-1-17-4-33-8-49H480Z"/>
  <path fill="#ed4c5c" d="M799-505H480v25H160l1 25h638l1-25-1-25"/>
  <path fill="#fff" d="M169-406h622c5-16 7-32 8-49H161c1 16 3 33 8 49"/>
  <path fill="#ed4c5c" d="M185-357h590c7-16 12-32 16-49H169c4 17 9 33 16 49"/>
  <path fill="#fff" d="M210-308h540c9-16 18-32 25-49H185c7 17 16 33 25 49"/>
  <path fill="#ed4c5c" d="M249-259h462c14-15 28-32 39-49H210c11 18 25 34 39 49"/>
  <path fill="#fff" d="M308-210h344c22-14 41-31 59-49H249c18 19 38 35 59 49"/>
  <path fill="#ed4c5c" d="M480-160c63 0 122-18 172-50H308c50 32 109 50 172 50"/>
  <path fill="#428bc1" d="M309-751a340 340 0 0 0-99 98c-9 16-19 32-25 49a377 377 0 0 0-24 98l-1 26h320v-320c-63 0-121 18-171 49"/>
  <path fill="#fff" d="m405-789 6 16h16l-13 10 4 16-13-9-12 9 4-16-13-10h16zm43 64 5 16h16l-12 10 4 16-13-9-13 9 4-16-12-10h16zm-85 0 5 16h16l-13 10 4 16-12-9-13 9 4-16-13-10h16zm42 64 6 16h16l-13 10 4 16-13-9-12 9 4-16-13-10h16zm-85 0 5 16h16l-12 10 4 16-13-9-13 9 4-16-12-10h16zm-85 0 5 16h16l-13 10 4 16-12-9-13 9 4-16-13-10h16zm213 64 5 16h16l-12 10 4 16-13-9-13 9 4-16-12-10h16zm-85 0 5 16h16l-13 10 4 16-12-9-13 9 4-16-13-10h16zm-86 0 6 16h16l-13 10 4 16-13-9-12 9 4-16-13-10h16zm128 64 6 16h16l-13 10 4 16-13-9-12 9 4-16-13-10h16zm-85 0 5 16h16l-12 10 4 16-13-9-13 9 4-16-12-10h16zm-85 0 5 16h16l-13 10 4 16-12-9-13 9 4-16-13-10h16zm30-150 12-9 13 9-5-16 13-10h-16l-5-16-5 16h-15l13 9zm-86 128 13-9 13 9-6-16 13-10h-15l-5-16-5 16h-11l-1 3 8 6z"/>
</svg>
