<svg xmlns="http://www.w3.org/2000/svg" version="1.1" xmlns:xlink="http://www.w3.org/1999/xlink" xmlns:svgjs="http://svgjs.dev/svgjs" viewBox="0 0 800 800"><circle r="6" cx="320" cy="788" stroke-width="2" stroke="hsl(150, 50%, 50%)" fill="none" opacity="0.90"></circle><circle r="7.5" cx="252" cy="253" fill="hsl(134, 50%, 50%)" opacity="0.46"></circle><circle r="5.5" cx="196" cy="227" stroke-width="2" stroke="hsl(129, 50%, 50%)" fill="none" opacity="0.55"></circle><circle r="7.5" cx="262" cy="84" fill="hsl(148, 50%, 50%)" opacity="0.75"></circle><circle r="14" cx="535" cy="696" stroke-width="2" stroke="hsl(187, 50%, 50%)" fill="none" opacity="0.21"></circle><circle r="10" cx="213" cy="29" stroke-width="2" stroke="hsl(138, 50%, 50%)" fill="none" opacity="0.52"></circle><circle r="9" cx="296" cy="74" stroke-width="2" stroke="hsl(159, 50%, 50%)" fill="none" opacity="0.73"></circle><circle r="7" cx="293" cy="538" stroke-width="2" stroke="hsl(143, 50%, 50%)" fill="none" opacity="0.27"></circle><circle r="6" cx="171" cy="640" fill="hsl(133, 50%, 50%)" opacity="0.70"></circle><circle r="7" cx="13" cy="395" stroke-width="2" stroke="hsl(179, 50%, 50%)" fill="none" opacity="0.98"></circle><circle r="11.5" cx="640" cy="292" stroke-width="2" stroke="hsl(198, 50%, 50%)" fill="none" opacity="0.13"></circle><circle r="5" cx="117" cy="552" fill="hsl(147, 50%, 50%)" opacity="0.74"></circle><circle r="10" cx="690" cy="172" stroke-width="2" stroke="hsl(199, 50%, 50%)" fill="none" opacity="0.12"></circle><circle r="7" cx="141" cy="153" stroke-width="2" stroke="hsl(143, 50%, 50%)" fill="none" opacity="0.87"></circle><circle r="6.5" cx="748" cy="249" stroke-width="2" stroke="hsl(170, 50%, 50%)" fill="none" opacity="0.14"></circle><circle r="13" cx="567" cy="159" stroke-width="2" stroke="hsl(190, 50%, 50%)" fill="none" opacity="0.72"></circle><circle r="4" cx="792" cy="177" stroke-width="2" stroke="hsl(152, 50%, 50%)" fill="none" opacity="0.77"></circle><circle r="8.5" cx="666" cy="99" fill="hsl(205, 50%, 50%)" opacity="0.96"></circle><circle r="11" cx="729" cy="89" fill="hsl(202, 50%, 50%)" opacity="0.18"></circle><circle r="11.5" cx="65" cy="109" stroke-width="2" stroke="hsl(165, 50%, 50%)" fill="none" opacity="0.41"></circle><circle r="6.5" cx="241" cy="392" stroke-width="2" stroke="hsl(131, 50%, 50%)" fill="none" opacity="0.14"></circle><circle r="7" cx="54" cy="342" fill="hsl(168, 50%, 50%)" opacity="0.77"></circle><circle r="7" cx="709" cy="312" stroke-width="2" stroke="hsl(186, 50%, 50%)" fill="none" opacity="0.60"></circle><circle r="8.5" cx="112" cy="203" stroke-width="2" stroke="hsl(151, 50%, 50%)" fill="none" opacity="0.58"></circle><circle r="5.5" cx="280" cy="405" stroke-width="2" stroke="hsl(139, 50%, 50%)" fill="none" opacity="0.24"></circle><circle r="8.5" cx="735" cy="766" fill="hsl(176, 50%, 50%)" opacity="0.71"></circle><circle r="5.5" cx="440" cy="139" fill="hsl(167, 50%, 50%)" opacity="0.74"></circle><circle r="6.5" cx="332" cy="139" stroke-width="2" stroke="hsl(157, 50%, 50%)" fill="none" opacity="0.37"></circle><circle r="6.5" cx="637" cy="688" fill="hsl(198, 50%, 50%)" opacity="0.59"></circle><circle r="5.5" cx="339" cy="10" stroke-width="2" stroke="hsl(177, 50%, 50%)" fill="none" opacity="0.72"></circle><circle r="5.5" cx="338" cy="40" fill="hsl(171, 50%, 50%)" opacity="0.98"></circle><circle r="8.5" cx="581" cy="320" stroke-width="2" stroke="hsl(194, 50%, 50%)" fill="none" opacity="0.53"></circle><circle r="5" cx="211" cy="252" fill="hsl(129, 50%, 50%)" opacity="0.92"></circle><circle r="8.5" cx="656" cy="672" fill="hsl(197, 50%, 50%)" opacity="0.78"></circle><circle r="7" cx="373" cy="506" stroke-width="2" stroke="hsl(165, 50%, 50%)" fill="none" opacity="0.28"></circle><circle r="12.5" cx="750" cy="60" fill="hsl(190, 50%, 50%)" opacity="0.72"></circle><circle r="12.5" cx="734" cy="459" fill="hsl(176, 50%, 50%)" opacity="0.98"></circle><circle r="10" cx="16" cy="503" fill="hsl(179, 50%, 50%)" opacity="0.40"></circle><circle r="5.5" cx="23" cy="39" fill="hsl(164, 50%, 50%)" opacity="0.80"></circle><circle r="5.5" cx="327" cy="216" stroke-width="2" stroke="hsl(154, 50%, 50%)" fill="none" opacity="0.61"></circle><circle r="14" cx="632" cy="331" stroke-width="2" stroke="hsl(198, 50%, 50%)" fill="none" opacity="0.39"></circle><circle r="4.5" cx="739" cy="649" stroke-width="2" stroke="hsl(170, 50%, 50%)" fill="none" opacity="0.70"></circle><circle r="8" cx="175" cy="134" fill="hsl(138, 50%, 50%)" opacity="0.94"></circle><circle r="8.5" cx="64" cy="373" fill="hsl(164, 50%, 50%)" opacity="0.88"></circle><circle r="7" cx="614" cy="18" stroke-width="2" stroke="hsl(158, 50%, 50%)" fill="none" opacity="0.59"></circle><circle r="9" cx="409" cy="418" fill="hsl(173, 50%, 50%)" opacity="0.28"></circle><circle r="6" cx="72" cy="575" fill="hsl(164, 50%, 50%)" opacity="0.86"></circle><circle r="6" cx="451" cy="88" stroke-width="2" stroke="hsl(158, 50%, 50%)" fill="none" opacity="0.20"></circle><circle r="11" cx="420" cy="374" stroke-width="2" stroke="hsl(175, 50%, 50%)" fill="none" opacity="0.50"></circle><circle r="7.5" cx="772" cy="161" fill="hsl(175, 50%, 50%)" opacity="0.49"></circle><circle r="6.5" cx="662" cy="120" fill="hsl(207, 50%, 50%)" opacity="0.40"></circle><circle r="7" cx="649" cy="263" stroke-width="2" stroke="hsl(198, 50%, 50%)" fill="none" opacity="0.45"></circle><circle r="6" cx="429" cy="104" fill="hsl(162, 50%, 50%)" opacity="0.31"></circle><circle r="10" cx="635" cy="403" fill="hsl(198, 50%, 50%)" opacity="0.17"></circle><circle r="12.5" cx="542" cy="122" stroke-width="2" stroke="hsl(174, 50%, 50%)" fill="none" opacity="0.14"></circle><circle r="10.5" cx="466" cy="451" fill="hsl(180, 50%, 50%)" opacity="0.25"></circle><circle r="5.5" cx="212" cy="277" stroke-width="2" stroke="hsl(129, 50%, 50%)" fill="none" opacity="0.57"></circle><circle r="10.5" cx="669" cy="351" fill="hsl(195, 50%, 50%)" opacity="0.24"></circle><circle r="5.5" cx="126" cy="267" stroke-width="2" stroke="hsl(143, 50%, 50%)" fill="none" opacity="0.67"></circle><circle r="9" cx="615" cy="71" fill="hsl(183, 50%, 50%)" opacity="0.47"></circle><circle r="9" cx="485" cy="517" fill="hsl(181, 50%, 50%)" opacity="0.96"></circle><circle r="10.5" cx="592" cy="650" stroke-width="2" stroke="hsl(196, 50%, 50%)" fill="none" opacity="0.55"></circle><circle r="4.5" cx="232" cy="115" fill="hsl(139, 50%, 50%)" opacity="0.41"></circle><circle r="9.5" cx="737" cy="20" fill="hsl(178, 50%, 50%)" opacity="0.25"></circle><circle r="6" cx="355" cy="184" fill="hsl(161, 50%, 50%)" opacity="0.33"></circle><circle r="17" cx="564" cy="215" fill="hsl(193, 50%, 50%)" opacity="0.49"></circle><circle r="10" cx="461" cy="624" fill="hsl(179, 50%, 50%)" opacity="0.26"></circle><circle r="9" cx="528" cy="393" stroke-width="2" stroke="hsl(187, 50%, 50%)" fill="none" opacity="0.23"></circle><circle r="10" cx="611" cy="440" stroke-width="2" stroke="hsl(197, 50%, 50%)" fill="none" opacity="0.47"></circle><circle r="4" cx="217" cy="683" stroke-width="2" stroke="hsl(129, 50%, 50%)" fill="none" opacity="0.73"></circle><circle r="6.5" cx="338" cy="79" stroke-width="2" stroke="hsl(165, 50%, 50%)" fill="none" opacity="0.79"></circle><circle r="6.5" cx="254" cy="785" fill="hsl(134, 50%, 50%)" opacity="0.22"></circle><circle r="7.5" cx="440" cy="640" stroke-width="2" stroke="hsl(178, 50%, 50%)" fill="none" opacity="0.54"></circle><circle r="5.5" cx="36" cy="430" stroke-width="2" stroke="hsl(176, 50%, 50%)" fill="none" opacity="0.27"></circle><circle r="5" cx="405" cy="141" stroke-width="2" stroke="hsl(166, 50%, 50%)" fill="none" opacity="0.60"></circle><circle r="8" cx="553" cy="469" fill="hsl(191, 50%, 50%)" opacity="0.75"></circle><circle r="8" cx="380" cy="362" stroke-width="2" stroke="hsl(168, 50%, 50%)" fill="none" opacity="0.72"></circle><circle r="5.5" cx="252" cy="722" stroke-width="2" stroke="hsl(134, 50%, 50%)" fill="none" opacity="0.59"></circle><circle r="13" cx="24" cy="106" stroke-width="2" stroke="hsl(185, 50%, 50%)" fill="none" opacity="0.13"></circle><circle r="6" cx="147" cy="656" stroke-width="2" stroke="hsl(139, 50%, 50%)" fill="none" opacity="0.26"></circle><circle r="9.5" cx="785" cy="57" stroke-width="2" stroke="hsl(182, 50%, 50%)" fill="none" opacity="0.30"></circle><circle r="9" cx="459" cy="361" fill="hsl(179, 50%, 50%)" opacity="0.54"></circle><circle r="8" cx="399" cy="530" fill="hsl(171, 50%, 50%)" opacity="0.42"></circle><circle r="6" cx="660" cy="709" stroke-width="2" stroke="hsl(197, 50%, 50%)" fill="none" opacity="0.23"></circle><circle r="8.5" cx="746" cy="187" stroke-width="2" stroke="hsl(176, 50%, 50%)" fill="none" opacity="0.82"></circle><circle r="9" cx="101" cy="310" fill="hsl(151, 50%, 50%)" opacity="0.42"></circle><circle r="5" cx="65" cy="551" fill="hsl(164, 50%, 50%)" opacity="0.23"></circle><circle r="5.5" cx="81" cy="674" stroke-width="2" stroke="hsl(160, 50%, 50%)" fill="none" opacity="0.56"></circle><circle r="9" cx="97" cy="507" fill="hsl(156, 50%, 50%)" opacity="0.71"></circle><circle r="7.5" cx="765" cy="783" fill="hsl(158, 50%, 50%)" opacity="0.49"></circle><circle r="5" cx="543" cy="434" fill="hsl(189, 50%, 50%)" opacity="0.31"></circle><circle r="9.5" cx="777" cy="457" fill="hsl(152, 50%, 50%)" opacity="0.57"></circle><circle r="6.5" cx="140" cy="301" fill="hsl(139, 50%, 50%)" opacity="0.43"></circle><circle r="7.5" cx="120" cy="659" stroke-width="2" stroke="hsl(147, 50%, 50%)" fill="none" opacity="0.74"></circle><circle r="9" cx="56" cy="703" stroke-width="2" stroke="hsl(168, 50%, 50%)" fill="none" opacity="0.18"></circle><circle r="11" cx="726" cy="361" stroke-width="2" stroke="hsl(176, 50%, 50%)" fill="none" opacity="0.80"></circle><circle r="8.5" cx="465" cy="734" stroke-width="2" stroke="hsl(180, 50%, 50%)" fill="none" opacity="0.25"></circle><circle r="13.5" cx="669" cy="209" stroke-width="2" stroke="hsl(195, 50%, 50%)" fill="none" opacity="0.62"></circle><circle r="7.5" cx="304" cy="466" stroke-width="2" stroke="hsl(147, 50%, 50%)" fill="none" opacity="0.33"></circle><circle r="7.5" cx="346" cy="716" fill="hsl(158, 50%, 50%)" opacity="0.39"></circle><circle r="8.5" cx="109" cy="116" fill="hsl(153, 50%, 50%)" opacity="1.00"></circle><circle r="4" cx="6" cy="40" stroke-width="2" stroke="hsl(170, 50%, 50%)" fill="none" opacity="0.44"></circle><circle r="13.5" cx="527" cy="181" stroke-width="2" stroke="hsl(185, 50%, 50%)" fill="none" opacity="0.48"></circle><circle r="5.5" cx="141" cy="696" stroke-width="2" stroke="hsl(139, 50%, 50%)" fill="none" opacity="0.36"></circle><circle r="3.5" cx="536" cy="26" stroke-width="2" stroke="hsl(141, 50%, 50%)" fill="none" opacity="0.91"></circle><circle r="8" cx="410" cy="259" fill="hsl(173, 50%, 50%)" opacity="0.62"></circle><circle r="9.5" cx="712" cy="198" fill="hsl(186, 50%, 50%)" opacity="0.11"></circle><circle r="9" cx="628" cy="619" fill="hsl(198, 50%, 50%)" opacity="0.61"></circle><circle r="8" cx="376" cy="390" fill="hsl(168, 50%, 50%)" opacity="0.29"></circle><circle r="7" cx="434" cy="678" stroke-width="2" stroke="hsl(176, 50%, 50%)" fill="none" opacity="0.68"></circle><circle r="11" cx="341" cy="670" stroke-width="2" stroke="hsl(158, 50%, 50%)" fill="none" opacity="0.44"></circle></svg>